<svg width="20" height="20" viewBox="0 0 20 20" fill="none" xmlns="http://www.w3.org/2000/svg">
<path d="M6.25 2.5C4.53125 2.5 3.125 3.90625 3.125 5.625V13.125C3.12586 13.8465 3.33443 14.5525 3.72577 15.1586C4.11711 15.7647 4.67469 16.2454 5.33188 16.5431L3.75 18.125H5.215L6.48438 16.8556C6.60938 16.8681 6.74563 16.875 6.875 16.875H13.125C13.2544 16.875 13.3912 16.8675 13.5156 16.8556L14.785 18.125H16.25L14.6681 16.5431C15.3253 16.2454 15.8829 15.7647 16.2742 15.1586C16.6656 14.5525 16.8741 13.8465 16.875 13.125V5.625C16.875 3.90625 15.4688 2.5 13.75 2.5H6.25ZM6.25 3.75H13.75C14.575 3.75 15.2738 4.2675 15.5275 5H4.4725C4.60166 4.63245 4.84238 4.31442 5.16105 4.09032C5.47972 3.86622 5.86043 3.74724 6.25 3.75ZM4.375 6.25H9.375V10H4.375V6.25ZM10.625 6.25H15.625V10H10.625V6.25ZM4.375 11.25H15.625V13.125C15.625 14.5119 14.5119 15.625 13.125 15.625H6.875C5.48812 15.625 4.375 14.5119 4.375 13.125V11.25ZM6.5625 12.5C6.31386 12.5 6.0754 12.5988 5.89959 12.7746C5.72377 12.9504 5.625 13.1889 5.625 13.4375C5.625 13.6861 5.72377 13.9246 5.89959 14.1004C6.0754 14.2762 6.31386 14.375 6.5625 14.375C6.81114 14.375 7.0496 14.2762 7.22541 14.1004C7.40123 13.9246 7.5 13.6861 7.5 13.4375C7.5 13.1889 7.40123 12.9504 7.22541 12.7746C7.0496 12.5988 6.81114 12.5 6.5625 12.5ZM13.4375 12.5C13.1889 12.5 12.9504 12.5988 12.7746 12.7746C12.5988 12.9504 12.5 13.1889 12.5 13.4375C12.5 13.6861 12.5988 13.9246 12.7746 14.1004C12.9504 14.2762 13.1889 14.375 13.4375 14.375C13.6861 14.375 13.9246 14.2762 14.1004 14.1004C14.2762 13.9246 14.375 13.6861 14.375 13.4375C14.375 13.1889 14.2762 12.9504 14.1004 12.7746C13.9246 12.5988 13.6861 12.5 13.4375 12.5Z" fill="#1BC27A"/>
</svg>
