<svg width="16" height="18" viewBox="0 0 16 18" fill="none" xmlns="http://www.w3.org/2000/svg">
<path fill-rule="evenodd" clip-rule="evenodd" d="M10.1583 0.0826595C10.4808 -0.0402825 10.8419 0.121525 10.9649 0.444067L11.9466 3.0197C12.0411 3.26747 11.9689 3.54787 11.7665 3.71924C11.5642 3.89061 11.2758 3.91565 11.0469 3.78171C10.1529 3.25844 9.1124 2.95834 7.99992 2.95834C4.6632 2.95834 1.95825 5.66329 1.95825 9.00001C1.95825 10.1015 2.25245 11.1324 2.76614 12.0204C2.93898 12.3192 2.83687 12.7015 2.53809 12.8743C2.2393 13.0472 1.85697 12.9451 1.68413 12.6463C1.06335 11.5731 0.708252 10.3271 0.708252 9.00001C0.708252 4.97293 3.97284 1.70834 7.99992 1.70834C8.78208 1.70834 9.53609 1.83169 10.2431 2.06008L9.79686 0.889279C9.67392 0.566737 9.83572 0.205601 10.1583 0.0826595ZM13.4618 5.12567C13.7605 4.95283 14.1429 5.05493 14.3157 5.35372C14.9365 6.42686 15.2916 7.67291 15.2916 9.00001C15.2916 13.0271 12.027 16.2917 7.99992 16.2917C7.21775 16.2917 6.46374 16.1683 5.7567 15.9399L6.20298 17.1107C6.32592 17.4333 6.16412 17.7944 5.84158 17.9173C5.51904 18.0403 5.1579 17.8785 5.03496 17.5559L4.05318 14.9803C3.95874 14.7325 4.03092 14.4521 4.23326 14.2808C4.4356 14.1094 4.72406 14.0843 4.95291 14.2183C5.84693 14.7416 6.88743 15.0417 7.99992 15.0417C11.3366 15.0417 14.0416 12.3367 14.0416 9.00001C14.0416 7.89852 13.7474 6.86764 13.2337 5.97963C13.0609 5.68084 13.163 5.29851 13.4618 5.12567Z" fill="#1BC27A"/>
</svg>
