<svg width="14" height="14" viewBox="0 0 14 14" fill="none" xmlns="http://www.w3.org/2000/svg">
<path d="M13.2999 1.34163C11.7249 5.19163 10.15 9.04163 8.57495 12.8916C8.51662 13.0666 8.39995 13.2416 8.16662 13.3C7.87495 13.3583 7.58328 13.1833 7.52495 12.8916C7.40828 12.3666 7.34995 11.8416 7.23328 11.3166C6.99995 10.0916 6.76662 8.86663 6.59162 7.64163C6.59162 7.52497 6.53328 7.52497 6.41662 7.46663C4.84162 7.17497 3.32495 6.8833 1.74995 6.64997C1.51662 6.59163 1.34162 6.59163 1.10828 6.5333C0.874951 6.47497 0.699951 6.29997 0.699951 6.06663C0.699951 5.8333 0.816618 5.59997 1.04995 5.54163C1.74995 5.24997 2.44995 4.9583 3.14995 4.66663C6.24162 3.32497 9.33328 2.04163 12.4249 0.816634C12.4833 0.758301 12.6 0.758301 12.6583 0.758301C12.7166 0.758301 12.775 0.758301 12.8333 0.758301C13.0666 0.816634 13.1833 0.991634 13.2416 1.16663C13.3 1.22497 13.2999 1.2833 13.2999 1.34163Z" fill="#323232"/>
</svg>
