<svg width="20" height="20" viewBox="0 0 20 20" fill="none" xmlns="http://www.w3.org/2000/svg">
<path d="M16.25 17.5001H12.5C12.1685 17.5001 11.8505 17.3684 11.6161 17.134C11.3817 16.8996 11.25 16.5816 11.25 16.2501V12.5001H8.75V16.2501C8.75 16.5816 8.6183 16.8996 8.38388 17.134C8.14946 17.3684 7.83152 17.5001 7.5 17.5001H3.75C3.41848 17.5001 3.10054 17.3684 2.86612 17.134C2.6317 16.8996 2.5 16.5816 2.5 16.2501V9.02353C2.50006 8.85009 2.5362 8.67856 2.60614 8.51985C2.67608 8.36114 2.77828 8.21872 2.90625 8.10165L9.15625 2.42197C9.38668 2.21115 9.68768 2.09424 10 2.09424C10.3123 2.09424 10.6133 2.21115 10.8438 2.42197L17.0938 8.10165C17.2217 8.21872 17.3239 8.36114 17.3939 8.51985C17.4638 8.67856 17.4999 8.85009 17.5 9.02353V16.2501C17.5 16.5816 17.3683 16.8996 17.1339 17.134C16.8995 17.3684 16.5815 17.5001 16.25 17.5001ZM8.75 11.2501H11.25C11.5815 11.2501 11.8995 11.3818 12.1339 11.6162C12.3683 11.8506 12.5 12.1686 12.5 12.5001V16.2501H16.25V9.02353L10 3.34384L3.75 9.02353V16.2501H7.5V12.5001C7.5 12.1686 7.6317 11.8506 7.86612 11.6162C8.10054 11.3818 8.41848 11.2501 8.75 11.2501Z" fill="#1BC27A"/>
</svg>
