<svg width="16" height="16" viewBox="0 0 16 16" fill="none" xmlns="http://www.w3.org/2000/svg">
<path fill-rule="evenodd" clip-rule="evenodd" d="M3.99961 1.6001C4.21178 1.6001 4.41527 1.68438 4.56529 1.83441C4.71532 1.98444 4.79961 2.18792 4.79961 2.4001V3.2001H5.59961C5.81178 3.2001 6.01527 3.28438 6.16529 3.43441C6.31532 3.58444 6.39961 3.78792 6.39961 4.0001C6.39961 4.21227 6.31532 4.41575 6.16529 4.56578C6.01527 4.71581 5.81178 4.8001 5.59961 4.8001H4.79961V5.6001C4.79961 5.81227 4.71532 6.01575 4.56529 6.16578C4.41527 6.31581 4.21178 6.4001 3.99961 6.4001C3.78744 6.4001 3.58395 6.31581 3.43392 6.16578C3.2839 6.01575 3.19961 5.81227 3.19961 5.6001V4.8001H2.39961C2.18744 4.8001 1.98395 4.71581 1.83392 4.56578C1.68389 4.41575 1.59961 4.21227 1.59961 4.0001C1.59961 3.78792 1.68389 3.58444 1.83392 3.43441C1.98395 3.28438 2.18744 3.2001 2.39961 3.2001H3.19961V2.4001C3.19961 2.18792 3.2839 1.98444 3.43392 1.83441C3.58395 1.68438 3.78744 1.6001 3.99961 1.6001ZM3.99961 9.6001C4.21178 9.6001 4.41527 9.68438 4.56529 9.83441C4.71532 9.98444 4.79961 10.1879 4.79961 10.4001V11.2001H5.59961C5.81178 11.2001 6.01527 11.2844 6.16529 11.4344C6.31532 11.5844 6.39961 11.7879 6.39961 12.0001C6.39961 12.2123 6.31532 12.4158 6.16529 12.5658C6.01527 12.7158 5.81178 12.8001 5.59961 12.8001H4.79961V13.6001C4.79961 13.8123 4.71532 14.0158 4.56529 14.1658C4.41527 14.3158 4.21178 14.4001 3.99961 14.4001C3.78744 14.4001 3.58395 14.3158 3.43392 14.1658C3.2839 14.0158 3.19961 13.8123 3.19961 13.6001V12.8001H2.39961C2.18744 12.8001 1.98395 12.7158 1.83392 12.5658C1.68389 12.4158 1.59961 12.2123 1.59961 12.0001C1.59961 11.7879 1.68389 11.5844 1.83392 11.4344C1.98395 11.2844 2.18744 11.2001 2.39961 11.2001H3.19961V10.4001C3.19961 10.1879 3.2839 9.98444 3.43392 9.83441C3.58395 9.68438 3.78744 9.6001 3.99961 9.6001ZM9.59961 1.6001C9.77616 1.60004 9.94777 1.65839 10.0877 1.76605C10.2276 1.87371 10.328 2.02463 10.3732 2.1953L11.3164 5.7601L13.9996 7.3073C14.1212 7.37751 14.2222 7.4785 14.2924 7.60011C14.3626 7.72173 14.3996 7.85967 14.3996 8.0001C14.3996 8.14052 14.3626 8.27847 14.2924 8.40008C14.2222 8.52169 14.1212 8.62268 13.9996 8.6929L11.3164 10.2409L10.3724 13.8049C10.3271 13.9754 10.2268 14.1262 10.0869 14.2337C9.94709 14.3413 9.77562 14.3996 9.59921 14.3996C9.4228 14.3996 9.25133 14.3413 9.11149 14.2337C8.97166 14.1262 8.87129 13.9754 8.82601 13.8049L7.88281 10.2401L5.19961 8.6929C5.078 8.62268 4.97702 8.52169 4.90681 8.40008C4.83661 8.27847 4.79964 8.14052 4.79964 8.0001C4.79964 7.85967 4.83661 7.72173 4.90681 7.60011C4.97702 7.4785 5.078 7.37751 5.19961 7.3073L7.88281 5.7593L8.82681 2.1953C8.87197 2.02476 8.97224 1.87394 9.112 1.76629C9.25177 1.65865 9.4232 1.60022 9.59961 1.6001Z" fill="white"/>
</svg>
