<svg width="44" height="44" viewBox="0 0 44 44" fill="none" xmlns="http://www.w3.org/2000/svg">
<path d="M21.9998 16.4998V20.8668C21.9998 21.5612 22.3922 22.196 23.0133 22.5066L25.6665 23.8332M40.3332 21.9998C40.3332 32.1251 32.1251 40.3332 21.9998 40.3332C11.8746 40.3332 3.6665 32.1251 3.6665 21.9998C3.6665 11.8746 11.8746 3.6665 21.9998 3.6665C32.1251 3.6665 40.3332 11.8746 40.3332 21.9998ZM34.8332 21.9998C34.8332 29.0875 29.0875 34.8332 21.9998 34.8332C14.9122 34.8332 9.1665 29.0875 9.1665 21.9998C9.1665 14.9122 14.9122 9.1665 21.9998 9.1665C29.0875 9.1665 34.8332 14.9122 34.8332 21.9998Z" stroke="#28303F" stroke-width="2.5" stroke-linecap="round"/>
</svg>
