<svg width="44" height="44" viewBox="0 0 44 44" fill="none" xmlns="http://www.w3.org/2000/svg">
<path fill-rule="evenodd" clip-rule="evenodd" d="M38.5 32.939V18.6088C38.5 16.3887 37.5107 14.2861 35.8053 12.8818L26.6386 5.33364C23.9391 3.11079 20.0609 3.11079 17.3614 5.33364L8.19475 12.8818C6.48935 14.2861 5.5 16.3887 5.5 18.6088V32.9391C5.5 37.0227 8.78325 40.3332 12.8333 40.3332H31.1667C35.2168 40.3332 38.5 37.0227 38.5 32.939ZM13.2917 21.9998C13.2917 21.2404 13.9073 20.6248 14.6667 20.6248H29.3333C30.0927 20.6248 30.7083 21.2404 30.7083 21.9998C30.7083 22.7592 30.0927 23.3748 29.3333 23.3748H14.6667C13.9073 23.3748 13.2917 22.7592 13.2917 21.9998ZM14.6667 27.9582C13.9073 27.9582 13.2917 28.5738 13.2917 29.3332C13.2917 30.0926 13.9073 30.7082 14.6667 30.7082H29.3333C30.0927 30.7082 30.7083 30.0926 30.7083 29.3332C30.7083 28.5738 30.0927 27.9582 29.3333 27.9582H14.6667Z" fill="#1BC27A"/>
</svg>
