<svg width="44" height="44" viewBox="0 0 44 44" fill="none" xmlns="http://www.w3.org/2000/svg">
<path d="M29.7783 6.88833C27.7877 4.89772 25.0377 3.6665 22.0001 3.6665C18.9626 3.6665 16.2126 4.89772 14.2219 6.88833M18.111 10.7774C19.1063 9.78211 20.4813 9.1665 22.0001 9.1665C23.5189 9.1665 24.8939 9.78211 25.8892 10.7774M22.0001 29.3332V40.3332M22.0001 40.3332H27.5001M22.0001 40.3332H16.5001M13.565 29.3332H30.4352C33.231 29.3332 34.9982 26.3298 33.6405 23.8858L29.5664 16.5525C28.9197 15.3884 27.6928 14.6665 26.3612 14.6665H17.6391C16.3075 14.6665 15.0805 15.3884 14.4338 16.5525L10.3598 23.8858C9.00202 26.3298 10.7692 29.3332 13.565 29.3332Z" stroke="#28303F" stroke-width="2.5" stroke-linecap="round" stroke-linejoin="round"/>
</svg>
