<svg width="44" height="44" viewBox="0 0 44 44" fill="none" xmlns="http://www.w3.org/2000/svg">
<path d="M11.5483 11.9167C8.98763 12.9788 6.46763 14.7276 4.99069 15.8444C4.13494 16.4914 3.66675 17.5121 3.66675 18.5849V36.3122C3.66675 37.8768 5.55123 38.7842 6.84991 37.9114C9.06729 36.4214 12.0793 34.7293 14.6667 34.4397C20.7503 33.7588 23.2498 40.9692 29.3334 40.2882C32.7568 39.905 36.9235 37.0668 39.0095 35.4896C39.8652 34.8425 40.3334 33.8219 40.3334 32.749V15.0218C40.3334 13.4571 38.4489 12.5498 37.1503 13.4225C35.9022 14.2612 34.4025 15.1638 32.8684 15.8444" stroke="#28303F" stroke-width="2.5"/>
<path d="M19.7319 16.3551L16.954 15.4292C16.1543 15.1626 16.108 14.049 16.8827 13.717L25.3936 10.0695C26.1542 9.74352 26.9232 10.5125 26.5973 11.2731L22.9497 19.784C22.6177 20.5587 21.5041 20.5124 21.2376 19.7128L20.3116 16.9349C20.2204 16.6612 20.0056 16.4464 19.7319 16.3551Z" stroke="#28303F" stroke-width="2.5"/>
<path d="M33 14.6667C33 20.7419 28.0751 25.6667 22 25.6667C15.9249 25.6667 11 20.7419 11 14.6667C11 8.59162 15.9249 3.66675 22 3.66675C28.0751 3.66675 33 8.59162 33 14.6667Z" stroke="#28303F" stroke-width="2.5"/>
</svg>
