<svg width="44" height="44" viewBox="0 0 44 44" fill="none" xmlns="http://www.w3.org/2000/svg">
<path d="M14.6806 14.6667H10.9998C6.94975 14.6667 3.6665 17.95 3.6665 22.0001V33.0001C3.6665 37.0502 6.94975 40.3334 10.9998 40.3334H32.9998C37.0499 40.3334 40.3332 37.0502 40.3332 33.0001V22.0001C40.3332 17.95 37.0499 14.6667 32.9998 14.6667H29.4933" stroke="#28303F" stroke-width="2.5" stroke-linejoin="round"/>
<path d="M22.9165 27.5L21.0832 27.5" stroke="#28303F" stroke-width="2.5" stroke-linecap="round"/>
<path d="M33 27.5L31.1667 27.5" stroke="#28303F" stroke-width="2.5" stroke-linecap="round"/>
<path d="M12.833 27.5L10.9997 27.5" stroke="#28303F" stroke-width="2.5" stroke-linecap="round"/>
<path d="M30.1654 11.5058C30.1654 15.8352 26.0825 23.2644 21.9997 23.2644C17.9168 23.2644 13.834 15.8352 13.834 11.5058C13.834 7.17642 17.4899 3.66675 21.9997 3.66675C26.5095 3.66675 30.1654 7.17642 30.1654 11.5058Z" stroke="#28303F" stroke-width="2.5"/>
<path d="M24.4494 11.0159C24.4494 12.3688 23.3526 13.4656 21.9997 13.4656C20.6467 13.4656 19.55 12.3688 19.55 11.0159C19.55 9.66294 20.6467 8.56616 21.9997 8.56616C23.3526 8.56616 24.4494 9.66294 24.4494 11.0159Z" stroke="#28303F" stroke-width="2.5"/>
</svg>
