<svg width="44" height="44" viewBox="0 0 44 44" fill="none" xmlns="http://www.w3.org/2000/svg">
<path fill-rule="evenodd" clip-rule="evenodd" d="M12.8333 3.6665C8.78325 3.6665 5.5 6.94975 5.5 10.9998V32.9998C5.5 37.0499 8.78325 40.3332 12.8333 40.3332H31.1667C35.2168 40.3332 38.5 37.0499 38.5 32.9998V14.0374C38.5 12.0925 37.7274 10.2272 36.3521 8.85196L33.3146 5.81439C31.9393 4.43912 30.074 3.6665 28.1291 3.6665H12.8333ZM14.6667 11.4582C13.9073 11.4582 13.2917 12.0738 13.2917 12.8332C13.2917 13.5926 13.9073 14.2082 14.6667 14.2082H29.3333C30.0927 14.2082 30.7083 13.5926 30.7083 12.8332C30.7083 12.0738 30.0927 11.4582 29.3333 11.4582H14.6667ZM13.2917 21.9998C13.2917 21.2404 13.9073 20.6248 14.6667 20.6248H29.3333C30.0927 20.6248 30.7083 21.2404 30.7083 21.9998C30.7083 22.7592 30.0927 23.3748 29.3333 23.3748H14.6667C13.9073 23.3748 13.2917 22.7592 13.2917 21.9998ZM14.6667 29.7915C13.9073 29.7915 13.2917 30.4071 13.2917 31.1665C13.2917 31.9259 13.9073 32.5415 14.6667 32.5415H22C22.7594 32.5415 23.375 31.9259 23.375 31.1665C23.375 30.4071 22.7594 29.7915 22 29.7915H14.6667Z" fill="#1BC27A"/>
</svg>
