<svg width="20" height="20" viewBox="0 0 20 20" fill="none" xmlns="http://www.w3.org/2000/svg">
<path fill-rule="evenodd" clip-rule="evenodd" d="M9.58329 2.2915C5.55622 2.2915 2.29163 5.55609 2.29163 9.58317C2.29163 13.6102 5.55622 16.8748 9.58329 16.8748C13.6104 16.8748 16.875 13.6102 16.875 9.58317C16.875 5.55609 13.6104 2.2915 9.58329 2.2915ZM1.04163 9.58317C1.04163 4.86574 4.86586 1.0415 9.58329 1.0415C14.3007 1.0415 18.125 4.86574 18.125 9.58317C18.125 11.7169 17.3426 13.668 16.049 15.165L18.7752 17.8912C19.0193 18.1353 19.0193 18.531 18.7752 18.7751C18.5312 19.0192 18.1354 19.0192 17.8914 18.7751L15.1651 16.0489C13.6681 17.3424 11.7171 18.1248 9.58329 18.1248C4.86586 18.1248 1.04163 14.3006 1.04163 9.58317ZM9.58329 5.62484C9.92847 5.62484 10.2083 5.90466 10.2083 6.24984V8.95817H12.9166C13.2618 8.95817 13.5416 9.23799 13.5416 9.58317C13.5416 9.92835 13.2618 10.2082 12.9166 10.2082H10.2083V12.9165C10.2083 13.2617 9.92847 13.5415 9.58329 13.5415C9.23811 13.5415 8.95829 13.2617 8.95829 12.9165V10.2082H6.24996C5.90478 10.2082 5.62496 9.92835 5.62496 9.58317C5.62496 9.23799 5.90478 8.95817 6.24996 8.95817H8.95829V6.24984C8.95829 5.90466 9.23811 5.62484 9.58329 5.62484Z" fill="white"/>
</svg>
